<svg xmlns="http://www.w3.org/2000/svg" aria-hidden="true" style="position:absolute;width:0;height:0;overflow:hidden">
<defs>
<!-- Logo-icon -->
<symbol id="icon-logo" viewBox="0 0 32 32">
<path fill="#fcf1e0" d="M3.944 20.076 14.721 2.652l.64-.674 8.236 5.491.056 3.314 2.01 3.28-8.88 14.077-12.839-8.063z" style="fill:var(--color3, #fcf1e0)"/>
<path fill="none" stroke="#fd9222" stroke-linecap="round" stroke-linejoin="round" stroke-width="2.667" d="M22.097 23.031 7.911 14.167m3.913-6.417 14.185 8.864m-14.916 8.402 11.736-19.25m4.81 8.175c-3.04-1.899-4.234-3.384-2.278-6.592l-9.626-6.015-11.736 19.25 14.186 8.864 9.454-15.507z" style="stroke:var(--color4, #fd9222)"/>
</symbol>
<!-- Scroll -->
<symbol id="icon-scroll" viewBox="0 0 32 32">
<path d="M16.947 17.867a1.334 1.334 0 0 1-1.894 0l-6.107-6.12a1.334 1.334 0 1 0-1.894 1.88l6.12 6.12a4.001 4.001 0 0 0 5.654 0l6.12-6.12a1.337 1.337 0 0 0-.434-2.172 1.331 1.331 0 0 0-1.46.292l-6.107 6.12z" style="fill:var(--color4, #fd9222)"/>
</symbol>
<!-- Attention -->
<symbol id="icon-attention" viewBox="0 0 32 32">
<path fill="#e74a3b" d="M14.667 20h2.667v2.667h-2.667V20zm0-10.667h2.667v8h-2.667v-8zm1.32-6.666C8.627 2.667 2.667 8.64 2.667 16s5.96 13.333 13.32 13.333c7.373 0 13.347-5.973 13.347-13.333S23.361 2.667 15.987 2.667zm.013 24c-5.893 0-10.667-4.773-10.667-10.667S10.106 5.333 16 5.333c5.893 0 10.667 4.773 10.667 10.667S21.894 26.667 16 26.667z" style="fill:var(--color5, #e74a3b)"/>
</symbol>
<!-- Facebook -->
<symbol id="icon-facebook" viewBox="0 0 32 32">
<path d="M19.52 4.64h.96v3.6h-1.2c-.48 0-.96 0-1.2.24s-.24.48-.24 1.04v1.28h2.64v3.04h-2.64v13.2h-4.08V13.76H11.6v-3.04h2.16V9.68c0-1.76.24-3.04.72-3.6.72-1.04 2.16-1.52 4.32-1.52.24.08.48.08.72.08z"/>
</symbol>
<!-- Instagram -->
<symbol id="icon-instagram" viewBox="0 0 32 32">
<path d="M28.718 10.756a9.264 9.264 0 0 0-.596-3.145 6.547 6.547 0 0 0-3.743-3.737 9.42 9.42 0 0 0-3.108-.596c-1.367-.061-1.801-.078-5.273-.078s-3.916 0-5.274.078a9.418 9.418 0 0 0-3.106.596 6.541 6.541 0 0 0-3.743 3.737 9.288 9.288 0 0 0-.596 3.101c-.061 1.367-.08 1.8-.08 5.265s0 3.909.08 5.265a9.335 9.335 0 0 0 .596 3.104 6.548 6.548 0 0 0 3.744 3.735 9.37 9.37 0 0 0 3.106.639c1.369.061 1.803.079 5.274.079s3.917 0 5.274-.079a9.362 9.362 0 0 0 3.108-.595 6.555 6.555 0 0 0 3.743-3.737 9.346 9.346 0 0 0 .596-3.104c.061-1.365.08-1.798.08-5.265-.003-3.466-.003-3.906-.082-5.264zM15.99 22.531c-3.631 0-6.572-2.936-6.572-6.561s2.941-6.561 6.572-6.561c3.628 0 6.572 2.936 6.572 6.561s-2.944 6.561-6.572 6.561zm6.834-11.835a1.53 1.53 0 1 1 0-3.06 1.53 1.53 0 1 1 0 3.06z"/>
<path d="M15.992 19.976a4.004 4.004 0 1 0 0-8.009 4.004 4.004 0 0 0 0 8.009z"/>
</symbol>
<!-- Twitter -->
<symbol id="icon-twitter" viewBox="0 0 32 32">
<path d="M29.333 7.898c-.992.435-2.048.723-3.15.863a5.44 5.44 0 0 0 2.405-3.022 10.916 10.916 0 0 1-3.467 1.323 5.465 5.465 0 0 0-9.456 3.738c0 .433.037.85.127 1.247-4.545-.222-8.567-2.4-11.268-5.718a5.5 5.5 0 0 0-.748 2.763c0 1.893.975 3.572 2.428 4.543a5.412 5.412 0 0 1-2.47-.673v.06a5.493 5.493 0 0 0 4.38 5.372c-.445.122-.93.18-1.433.18-.35 0-.703-.02-1.035-.093.708 2.165 2.718 3.757 5.108 3.808a10.985 10.985 0 0 1-6.778 2.332c-.448 0-.878-.02-1.308-.075a15.39 15.39 0 0 0 8.387 2.453c10.06 0 15.56-8.333 15.56-15.557 0-.242-.008-.475-.02-.707a10.91 10.91 0 0 0 2.74-2.838z"/>
</symbol>
<!-- Checkbox -->
<symbol id="icon-checkbox" viewBox="0 0 32 32">
<path fill="#fd9222" d="M9.6 0h12.8A9.6 9.6 0 0 1 32 9.6v12.8a9.6 9.6 0 0 1-9.6 9.6H9.6A9.6 9.6 0 0 1 0 22.4V9.6A9.6 9.6 0 0 1 9.6 0z" style="fill:var(--color4, #fd9222)"/>
<path fill="#fff" d="M14.318 23.607c.697 0 1.225-.268 1.582-.803l7.724-11.64c.128-.19.223-.377.285-.561.061-.19.092-.371.092-.544 0-.48-.167-.876-.502-1.188-.329-.318-.736-.477-1.222-.477-.335 0-.619.067-.854.201-.229.128-.446.351-.653.669l-6.485 10.184-3.247-3.891a1.674 1.674 0 0 0-1.322-.611c-.497 0-.907.159-1.23.477s-.485.717-.485 1.197c0 .218.033.424.1.619.073.19.204.388.393.594l4.31 5.08c.396.463.901.695 1.515.695z" style="fill:var(--color6, #fff)"/>
</symbol>
<!-- Close-btn -->
<symbol id="icon-close" viewBox="0 0 32 32">
<path fill="#e7e9fc" stroke="#2e2f42" stroke-width="1.333" d="M31.333 16c0 8.468-6.865 15.333-15.333 15.333S.667 24.468.667 16 7.532.667 16 .667 31.333 7.532 31.333 16z" opacity=".1" style="fill:var(--color7, #e7e9fc);stroke:var(--color8, #2e2f42)"/>
<path fill="#2e2f42" d="m21.333 11.741-1.074-1.074L16 14.926l-4.259-4.259-1.074 1.074L14.926 16l-4.259 4.259 1.074 1.074L16 17.074l4.259 4.259 1.074-1.074L17.074 16l4.259-4.259z" style="fill:var(--color8, #2e2f42)"/>
</symbol>
</defs>
</svg>